<svg id="Komponente_8_10" data-name="Komponente 8 – 10" xmlns="http://www.w3.org/2000/svg" width="36" height="36" viewBox="0 0 36 36">
  <path id="Vereinigungsmenge_1" data-name="Vereinigungsmenge 1" d="M7.177,34.193a3.378,3.378,0,0,1-1.018-2.446,3.667,3.667,0,0,1,1.018-2.5,3.537,3.537,0,0,1,2.578-.969,3.461,3.461,0,0,1,2.53,5.912,3.52,3.52,0,0,1-2.546.969A3.6,3.6,0,0,1,7.177,34.193Zm1.118-3.957a2.069,2.069,0,0,0-.575,1.494,1.965,1.965,0,0,0,2.02,2.02,2,2,0,0,0,1.462-.559,1.884,1.884,0,0,0,.559-1.478,1.942,1.942,0,0,0-2.021-2.036A2,2,0,0,0,8.294,30.236Zm21.037,4.779V33.454H34.44V1.561H2.546v4.3H.985V0H36V35.015Zm-5.765,0L20,30.745v4.27H18.476V28.428h1.33l3.564,4.238V28.428h1.512v6.587Zm-9.393,0V28.428h1.511v5.305h2.037v1.281Zm-9.312,0L2.5,32.091v2.924H.985V28.428H2.5v2.743l2.251-2.743H6.6L3.942,31.549,6.8,35.015Zm5.19-8a.782.782,0,0,1,.772-.772.772.772,0,1,1,0,1.544A.782.782,0,0,1,10.051,27.016Zm-2.152,0a.783.783,0,0,1,.772-.772.794.794,0,0,1,.772.772.772.772,0,0,1-1.545,0ZM7,24.882A2.852,2.852,0,0,1,6.274,22.8V18.9H7.784v3.86a1.523,1.523,0,0,0,.346,1.1,1.246,1.246,0,0,0,.919.346,1.166,1.166,0,0,0,.92-.346,1.53,1.53,0,0,0,.345-1.1V18.9h1.511V22.8a2.763,2.763,0,0,1-.722,2.086,2.631,2.631,0,0,1-2.053.755A2.61,2.61,0,0,1,7,24.882Zm10.676.607-3.58-4.27v4.27H12.581V18.9h1.314l3.58,4.238V18.9h1.511v6.587Zm-13.4-.016L2.5,22.877v2.6H.985V18.886h2.3a2.343,2.343,0,0,1,1.675.575,1.958,1.958,0,0,1,.575,1.462,1.773,1.773,0,0,1-.509,1.346,1.932,1.932,0,0,1-.921.509l2.021,2.695ZM2.5,21.893h.346a1.215,1.215,0,0,0,.9-.279.864.864,0,0,0,.246-.641.79.79,0,0,0-.3-.674,1.414,1.414,0,0,0-.837-.213H2.5Zm8.787-6.061a3.862,3.862,0,0,1-.969-.722l.788-1.084a3.386,3.386,0,0,0,.608.509,1.536,1.536,0,0,0,.821.231,1.085,1.085,0,0,0,.69-.231.626.626,0,0,0,.23-.509.611.611,0,0,0-.23-.477,3.254,3.254,0,0,0-.772-.36l-.542-.181a2.272,2.272,0,0,1-.921-.525,1.658,1.658,0,0,1-.393-1.15,2.043,2.043,0,0,1,.574-1.478,2.112,2.112,0,0,1,1.627-.607,3.169,3.169,0,0,1,1.953.657L14.075,11a1.613,1.613,0,0,0-1.1-.477.823.823,0,0,0-.641.229.585.585,0,0,0-.165.41.46.46,0,0,0,.149.362,2.391,2.391,0,0,0,.821.378l.493.181a2.741,2.741,0,0,1,.9.509,1.647,1.647,0,0,1,.476,1.215,2.37,2.37,0,0,1-.575,1.625,2.546,2.546,0,0,1-1.855.674A2.666,2.666,0,0,1,11.283,15.831Zm-6.176-.475a2.852,2.852,0,0,1-.722-2.086V9.377H5.9v3.86a1.53,1.53,0,0,0,.345,1.1,1.248,1.248,0,0,0,.92.346,1.224,1.224,0,0,0,.919-.346,1.523,1.523,0,0,0,.346-1.1V9.377H9.936V13.27a2.763,2.763,0,0,1-.722,2.086,2.631,2.631,0,0,1-2.053.755A2.612,2.612,0,0,1,5.107,15.356Zm-4.484.525A2.489,2.489,0,0,1,0,15.322l.952-1.066a1.378,1.378,0,0,0,.231.36.483.483,0,0,0,.378.148.449.449,0,0,0,.36-.132,1.092,1.092,0,0,0,.2-.771V9.395H3.629v4.467a2.337,2.337,0,0,1-.573,1.756,1.844,1.844,0,0,1-1.38.493A1.863,1.863,0,0,1,.624,15.881Zm15.98.082V10.658H15.175V9.377h4.369v1.281h-1.43v5.305Z" fill="#f0eaea"/>
</svg>
