<svg id="JRK" xmlns="http://www.w3.org/2000/svg" width="219.2" height="214.1" viewBox="0 0 219.2 214.1">
  <path id="Pfad_5" data-name="Pfad 5" d="M47.3,47.3V83h9.5V56.8H251V251H219.9v9.5h40.6V47.3Z" transform="translate(-41.3 -47.3)" fill="#f0eaea"/>
  <path id="Pfad_6" data-name="Pfad 6" d="M59.9,142.4c3.3-3.2,3.5-7.7,3.5-10.7V104.5H54.2v27.2c0,1.7-.1,3.6-1.2,4.7a2.764,2.764,0,0,1-2.2.8,2.94,2.94,0,0,1-2.3-.9,8.259,8.259,0,0,1-1.4-2.2l-5.8,6.5a15.238,15.238,0,0,0,3.8,3.4,11.317,11.317,0,0,0,6.4,1.4C54.1,145.4,57.3,145,59.9,142.4Z" transform="translate(-41.3 -47.3)" fill="#f0eaea"/>
  <path id="Pfad_7" data-name="Pfad 7" d="M68,104.4v23.7c0,3.8.5,8.6,4.4,12.7,3.8,4,8.3,4.6,12.5,4.6s8.6-.6,12.5-4.6c4-4.1,4.4-8.8,4.4-12.7V104.4H92.6v23.5c0,1.7-.1,4.7-2.1,6.7a7.468,7.468,0,0,1-5.6,2.1,7.607,7.607,0,0,1-5.6-2.1c-2-2-2.1-5-2.1-6.7V104.4Z" transform="translate(-41.3 -47.3)" fill="#f0eaea"/>
  <path id="Pfad_8" data-name="Pfad 8" d="M121.8,135.8a6.612,6.612,0,0,1-4.2,1.4,9.4,9.4,0,0,1-5-1.4,21,21,0,0,1-3.7-3.1l-4.8,6.6a23.908,23.908,0,0,0,5.9,4.4,16.315,16.315,0,0,0,7.9,1.7c2.6,0,7.8-.4,11.3-4.1a14.475,14.475,0,0,0,3.5-9.9,10.033,10.033,0,0,0-2.9-7.4,16.848,16.848,0,0,0-5.5-3.1l-3-1.1c-2.7-1-4.1-1.4-5-2.3a2.792,2.792,0,0,1-.9-2.2,3.552,3.552,0,0,1,1-2.5,5,5,0,0,1,3.9-1.4,9.828,9.828,0,0,1,6.7,2.9l4.1-6.7a19.322,19.322,0,0,0-11.9-4c-3.7,0-7.1.8-9.9,3.7a12.446,12.446,0,0,0-3.5,9,10.073,10.073,0,0,0,2.4,7,13.815,13.815,0,0,0,5.6,3.2l3.3,1.1a19.889,19.889,0,0,1,4.7,2.2,3.7,3.7,0,0,1,1.4,2.9A3.817,3.817,0,0,1,121.8,135.8Z" transform="translate(-41.3 -47.3)" fill="#f0eaea"/>
  <path id="Pfad_9" data-name="Pfad 9" d="M151.6,144.5V112.2h8.7v-7.8H133.7v7.8h8.7v32.3Z" transform="translate(-41.3 -47.3)" fill="#f0eaea"/>
  <path id="Pfad_10" data-name="Pfad 10" d="M47.3,162.4v40h9.2V186.6l10.8,15.8H78.6L66.3,186a11.834,11.834,0,0,0,5.6-3.1,10.8,10.8,0,0,0,3.1-8.2,11.924,11.924,0,0,0-3.5-8.9c-1.9-1.8-5.1-3.5-10.2-3.5h-14ZM65.6,175a5.264,5.264,0,0,1-1.5,3.9c-1.6,1.6-3.8,1.7-5.5,1.7H56.5v-11h2.2c1.2,0,3.6.1,5.1,1.3A4.806,4.806,0,0,1,65.6,175Z" transform="translate(-41.3 -47.3)" fill="#f0eaea"/>
  <path id="Pfad_11" data-name="Pfad 11" d="M96.4,194.7a7.607,7.607,0,0,1-5.6-2.1c-2-2-2.1-5-2.1-6.7V162.4H79.5v23.7c0,3.8.5,8.6,4.4,12.7,3.8,4,8.3,4.6,12.5,4.6s8.6-.6,12.5-4.6c4-4.1,4.4-8.8,4.4-12.7V162.4h-9.2v23.5c0,1.7-.1,4.7-2.1,6.7A7.1,7.1,0,0,1,96.4,194.7Z" transform="translate(-41.3 -47.3)" fill="#f0eaea"/>
  <path id="Pfad_12" data-name="Pfad 12" d="M156.9,202.5V162.4h-9.2v25.8l-21.8-25.8h-8v40.1h9.2v-26l21.8,26Z" transform="translate(-41.3 -47.3)" fill="#f0eaea"/>
  <path id="Pfad_13" data-name="Pfad 13" d="M81.5,220.4H70.2L56.5,237.1V220.4H47.3v40.1h9.2V242.7l14.4,17.8H82.7L65.3,239.4Z" transform="translate(-41.3 -47.3)" fill="#f0eaea"/>
  <path id="Pfad_14" data-name="Pfad 14" d="M100.7,219.5c-8,0-13,3.2-15.7,5.9a22.332,22.332,0,0,0-6.2,15.2A20.573,20.573,0,0,0,85,255.5a21.94,21.94,0,0,0,15.6,5.9c6.7,0,11.8-2.3,15.5-5.9a21.366,21.366,0,0,0,0-30.1C112.2,221.5,107,219.5,100.7,219.5Zm8.8,29.9a12.171,12.171,0,0,1-8.9,3.4,11.959,11.959,0,0,1-12.3-12.3,12.629,12.629,0,0,1,3.5-9.1,12.23,12.23,0,0,1,8.8-3.4,12.827,12.827,0,0,1,8.8,3.4,12.7,12.7,0,0,1,3.5,9C113,245.1,111.1,247.9,109.5,249.4Z" transform="translate(-41.3 -47.3)" fill="#f0eaea"/>
  <path id="Pfad_15" data-name="Pfad 15" d="M89.4,211.8a4.7,4.7,0,0,0,9.4,0,4.828,4.828,0,0,0-4.7-4.7A4.76,4.76,0,0,0,89.4,211.8Z" transform="translate(-41.3 -47.3)" fill="#f0eaea"/>
  <path id="Pfad_16" data-name="Pfad 16" d="M102.5,211.8a4.76,4.76,0,0,0,4.7,4.7,4.7,4.7,0,1,0,0-9.4A4.76,4.76,0,0,0,102.5,211.8Z" transform="translate(-41.3 -47.3)" fill="#f0eaea"/>
  <path id="Pfad_17" data-name="Pfad 17" d="M136.8,220.4h-9.2v40.1h21.6v-7.8H136.8Z" transform="translate(-41.3 -47.3)" fill="#f0eaea"/>
  <path id="Pfad_18" data-name="Pfad 18" d="M183.6,246.2l-21.7-25.8h-8.1v40.1h9.3v-26l21.7,26h8V220.4h-9.2Z" transform="translate(-41.3 -47.3)" fill="#f0eaea"/>
</svg>
